<svg width="200" height="60" viewBox="0 0 200 60" fill="none" xmlns="http://www.w3.org/2000/svg">
<path d="M98.7541 29L92.4918 10.1475H97.8361L103.115 26.6393H100.393L105.934 10.1475H110.721L115.967 26.6393H113.41L118.852 10.1475H123.836L117.607 29H112.066L107.508 14.8361H108.951L104.295 29H98.7541ZM131.017 17.5574H140.132V21.3279H131.017V17.5574ZM131.542 25.0328H141.607V29H126.427V10.1475H141.247V14.1148H131.542V25.0328ZM144.726 29V10.1475H149.907V29H144.726ZM154.252 29V10.1475H162.842C164.591 10.1475 166.088 10.4317 167.334 11C168.602 11.5464 169.586 12.3333 170.285 13.3607C170.985 14.388 171.334 15.6339 171.334 17.0984C171.334 18.5191 170.985 19.7432 170.285 20.7705C169.586 21.7978 168.602 22.5847 167.334 23.1311C166.088 23.6776 164.591 23.9508 162.842 23.9508H157.105L159.433 21.7541V29H154.252ZM166.121 29L161.367 22.1475H166.875L171.695 29H166.121ZM159.433 22.3443L157.531 20.0164H162.482C163.684 20.0164 164.591 19.765 165.203 19.2623C165.815 18.7377 166.121 18.0164 166.121 17.0984C166.121 16.1585 165.815 15.4372 165.203 14.9344C164.591 14.4317 163.684 14.1803 162.482 14.1803H157.531L159.433 11.8525V22.3443ZM174.697 29V10.1475H183.582C185.746 10.1475 187.626 10.5301 189.221 11.2951C190.839 12.0601 192.085 13.153 192.959 14.5738C193.855 15.9727 194.303 17.6448 194.303 19.5902C194.303 21.5137 193.855 23.1858 192.959 24.6066C192.085 26.0055 190.839 27.0874 189.221 27.8525C187.626 28.6175 185.746 29 183.582 29H174.697ZM179.877 24.9344H183.418C184.577 24.9344 185.571 24.7268 186.402 24.3115C187.254 23.8962 187.91 23.2951 188.369 22.5082C188.828 21.6995 189.057 20.7268 189.057 19.5902C189.057 18.4317 188.828 17.459 188.369 16.6721C187.91 15.8634 187.254 15.2514 186.402 14.8361C185.571 14.4208 184.577 14.2131 183.418 14.2131H179.877V24.9344Z" fill="white" style="mix-blend-mode:difference"/>
<path d="M105.58 52.1766C105.58 53.0859 105.336 53.8728 104.846 54.5373C104.374 55.2017 103.683 55.7176 102.774 56.0848C101.882 56.452 100.798 56.6356 99.5213 56.6356C98.3672 56.6356 97.2393 56.4782 96.1377 56.1635C95.0536 55.8312 94.2055 55.3941 93.5934 54.852L94.5902 52.8586C95.1847 53.3307 95.9279 53.7241 96.8197 54.0389C97.7115 54.3362 98.647 54.4848 99.6262 54.4848C100.885 54.4848 101.768 54.2837 102.275 53.8815C102.783 53.4618 103.036 52.9722 103.036 52.4127C103.036 51.923 102.87 51.5383 102.538 51.2586C102.223 50.9613 101.795 50.734 101.252 50.5766C100.71 50.4017 100.116 50.2444 99.4689 50.1045C98.8393 49.9646 98.2011 49.8072 97.5541 49.6323C96.9246 49.4575 96.3388 49.2214 95.7967 48.9241C95.2721 48.6269 94.8437 48.2247 94.5115 47.7176C94.1792 47.193 94.0131 46.5373 94.0131 45.7504C94.0131 44.8586 94.2579 44.0804 94.7475 43.4159C95.2372 42.7515 95.9279 42.2356 96.8197 41.8684C97.7115 41.5012 98.7781 41.3176 100.02 41.3176C100.929 41.3176 101.83 41.4225 102.721 41.6323C103.613 41.8247 104.383 42.1482 105.03 42.6028L104.111 44.6487C103.482 44.2116 102.8 43.9056 102.066 43.7307C101.349 43.5558 100.64 43.4684 99.941 43.4684C98.7519 43.4684 97.8863 43.6782 97.3443 44.0979C96.8197 44.5001 96.5574 44.9985 96.5574 45.593C96.5574 46.0826 96.7235 46.4761 97.0557 46.7733C97.388 47.0531 97.8164 47.2804 98.341 47.4553C98.8831 47.6127 99.4776 47.7613 100.125 47.9012C100.772 48.0411 101.41 48.1985 102.039 48.3733C102.669 48.5482 103.255 48.7843 103.797 49.0815C104.339 49.3788 104.767 49.781 105.082 50.2881C105.414 50.7777 105.58 51.4072 105.58 52.1766ZM114.249 56.4258V43.6258H109.16V41.5274H121.882V43.6258H116.793V56.4258H114.249ZM133.663 56.6356C132.299 56.6356 131.127 56.3821 130.148 55.875C129.169 55.3504 128.417 54.5985 127.892 53.6192C127.385 52.6225 127.132 51.4334 127.132 50.052V41.5274H129.676V49.9996C129.676 51.4509 130.017 52.5526 130.699 53.3045C131.398 54.0564 132.395 54.4323 133.689 54.4323C134.983 54.4323 135.971 54.0651 136.653 53.3307C137.353 52.5788 137.702 51.4684 137.702 49.9996V41.5274H140.194V50.052C140.194 51.4334 139.932 52.6225 139.407 53.6192C138.9 54.5985 138.157 55.3504 137.178 55.875C136.198 56.3821 135.027 56.6356 133.663 56.6356ZM147.871 56.4258V41.5274H154.35C156.028 41.5274 157.48 41.8334 158.704 42.4455C159.945 43.0575 160.898 43.923 161.563 45.0422C162.245 46.1613 162.586 47.4728 162.586 48.9766C162.586 50.4804 162.245 51.7919 161.563 52.911C160.898 54.0302 159.945 54.8957 158.704 55.5077C157.48 56.1198 156.028 56.4258 154.35 56.4258H147.871ZM150.415 54.3012H154.245C155.469 54.3012 156.509 54.0914 157.366 53.6717C158.223 53.2345 158.879 52.6138 159.333 51.8094C159.788 51.005 160.015 50.0608 160.015 48.9766C160.015 47.875 159.788 46.9307 159.333 46.1438C158.879 45.3394 158.223 44.7187 157.366 44.2815C156.509 43.8444 155.469 43.6258 154.245 43.6258H150.415V54.3012ZM169.042 56.4258V41.5274H171.586V56.4258H169.042ZM186.119 56.6356C184.58 56.6356 183.198 56.3034 181.974 55.6389C180.75 54.9744 179.78 54.0651 179.063 52.911C178.363 51.7394 178.014 50.4192 178.014 48.9504C178.014 47.499 178.363 46.1963 179.063 45.0422C179.78 43.8881 180.75 42.9788 181.974 42.3143C183.198 41.6498 184.58 41.3176 186.119 41.3176C187.675 41.3176 189.056 41.6498 190.263 42.3143C191.487 42.9788 192.449 43.8881 193.148 45.0422C193.865 46.1963 194.224 47.499 194.224 48.9504C194.224 50.4192 193.865 51.7394 193.148 52.911C192.449 54.0651 191.487 54.9744 190.263 55.6389C189.056 56.3034 187.675 56.6356 186.119 56.6356ZM186.119 54.4323C187.185 54.4323 188.13 54.1963 188.951 53.7241C189.791 53.252 190.447 52.605 190.919 51.7832C191.408 50.9438 191.653 50.0083 191.653 48.9766C191.653 47.9099 191.408 46.9744 190.919 46.17C190.447 45.3482 189.791 44.7012 188.951 44.2291C188.13 43.7569 187.185 43.5209 186.119 43.5209C185.069 43.5209 184.125 43.7569 183.286 44.2291C182.447 44.6837 181.782 45.322 181.292 46.1438C180.82 46.9657 180.584 47.9099 180.584 48.9766C180.584 50.0083 180.82 50.9438 181.292 51.7832C181.782 52.605 182.447 53.252 183.286 53.7241C184.125 54.1963 185.069 54.4323 186.119 54.4323Z" fill="white" style="mix-blend-mode:difference"/>
<path d="M29.133 56.5573L0 7.37695H15.7732L29.133 30.036L34.2184 21.6247L41.8033 34.2416L29.133 56.5573Z" fill="white"/>
<path d="M47.541 43.4822L67.445 9.01562H81.9672L54.8021 55.7369L47.541 43.4822Z" fill="white"/>
</svg>
